<svg width="60" height="65" viewBox="0 0 60 65" fill="none" xmlns="http://www.w3.org/2000/svg">
<path d="M29.6345 24.3226C31.242 24.3226 32.5001 25.5806 32.5001 27.1882C32.5001 27.7473 32.9893 28.2365 33.5485 28.2365C34.1076 28.2365 34.5968 27.7473 34.5968 27.1882C34.5968 24.8118 32.9194 22.8548 30.6829 22.3656V20.0591C30.6829 19.5 30.1936 19.0107 29.6345 19.0107C29.0753 19.0107 28.5861 19.5 28.5861 20.0591V22.3656C26.3495 22.8548 24.6721 24.8118 24.6721 27.1882C24.6721 29.914 26.9087 32.1505 29.6345 32.1505C31.242 32.1505 32.5001 33.4086 32.5001 35.0161C32.5001 36.6236 31.242 37.8817 29.6345 37.8817C28.027 37.8817 26.7689 36.6236 26.7689 35.0161C26.7689 34.457 26.2796 33.9677 25.7205 33.9677C25.1614 33.9677 24.6721 34.457 24.6721 35.0161C24.6721 37.3925 26.3495 39.3495 28.5861 39.8387V42.1451C28.5861 42.7043 29.0753 43.1935 29.6345 43.1935C30.1936 43.1935 30.6829 42.7043 30.6829 42.1451V39.8387C32.9194 39.3495 34.5968 37.3925 34.5968 35.0161C34.5968 32.2903 32.3603 30.0538 29.6345 30.0538C28.027 30.0538 26.7689 28.7957 26.7689 27.1882C26.7689 25.5806 28.027 24.3226 29.6345 24.3226Z" fill="#4A5B49"/>
<path d="M46.3388 29.6344C46.3388 20.4086 38.8603 12.9301 29.6345 12.9301C20.4087 12.9301 12.9302 20.4086 12.9302 29.6344C12.9302 36.1344 16.7044 42.0054 22.5753 44.8011V48.6452H20.9678C20.4087 48.6452 19.9194 49.1344 19.9194 49.6936C19.9194 50.2527 20.4087 50.7419 20.9678 50.7419H22.5753V52.4893H20.9678C20.4087 52.4893 19.9194 52.9785 19.9194 53.5376C19.9194 54.0968 20.4087 54.586 20.9678 54.586H22.5753V56.3333H20.9678C20.4087 56.3333 19.9194 56.8226 19.9194 57.3817C19.9194 57.9409 20.4087 58.4301 20.9678 58.4301H22.5753C22.8549 62.0645 25.9302 65 29.6345 65C33.3388 65 36.414 62.1344 36.6936 58.4301H38.3011C38.8603 58.4301 39.3495 57.9409 39.3495 57.3817C39.3495 56.8226 38.8603 56.3333 38.3011 56.3333H36.6936V54.586H38.3011C38.8603 54.586 39.3495 54.0968 39.3495 53.5376C39.3495 52.9785 38.8603 52.4893 38.3011 52.4893H36.6936V50.7419H38.3011C38.8603 50.7419 39.3495 50.2527 39.3495 49.6936C39.3495 49.1344 38.8603 48.6452 38.3011 48.6452H36.6936V44.8011C42.6345 42.0753 46.3388 36.2043 46.3388 29.6344ZM29.6345 62.9032C27.0485 62.9032 24.9517 60.9462 24.6721 58.4301H34.6667C34.3173 60.9462 32.2205 62.9032 29.6345 62.9032ZM34.6667 56.3333H24.6022V54.586H34.6667V56.3333ZM34.6667 52.4893H24.6022V50.7419H34.6667V52.4893ZM24.6022 48.6452V44.172C24.6022 43.7527 24.3226 43.4032 23.9732 43.1936C18.5216 40.8871 15.0269 35.5753 15.0269 29.6344C15.0269 21.5968 21.5968 15.0269 29.6345 15.0269C37.6721 15.0269 44.242 21.5968 44.242 29.6344C44.242 35.5753 40.7474 40.8172 35.2958 43.1237C34.8764 43.2634 34.6667 43.6828 34.6667 44.1022V48.5753H24.6022V48.6452Z" fill="#4A5B49"/>
<path d="M29.6344 0C13.2796 0 0 13.2796 0 29.6344C0 40.6075 6.01075 50.672 15.7258 55.8441C16.2151 56.1237 16.8441 55.914 17.1237 55.4247C17.4032 54.9355 17.1935 54.3065 16.7043 54.0269C7.68817 49.2043 2.09677 39.9086 2.09677 29.7043C2.09677 14.4677 14.4677 2.09677 29.6344 2.09677C44.8011 2.09677 57.172 14.4677 57.172 29.6344C57.172 39.9785 51.4409 49.3441 42.2849 54.0968C41.7957 54.3763 41.586 55.0054 41.8656 55.4946C42.0753 55.8441 42.4247 56.0538 42.7742 56.0538C42.914 56.0538 43.1237 55.9839 43.2634 55.914C53.1882 50.8118 59.3387 40.6774 59.3387 29.5645C59.2688 13.3495 45.9892 0 29.6344 0Z" fill="#4A5B49"/>
</svg>
