<svg width="151" height="137" viewBox="0 0 151 137" fill="none" xmlns="http://www.w3.org/2000/svg">
<g id="Group">
<g id="Group_2">
<g id="Group_3">
<path id="Vector" d="M18.5507 103.052C18.093 103.052 17.6992 102.707 17.6463 102.242C16.669 93.5966 10.7522 88.0692 8.25427 86.0951C7.8586 85.7844 7.79114 85.2105 8.10293 84.8138C8.41655 84.4172 8.98908 84.3496 9.38292 84.6603C12.0614 86.7769 18.4048 92.7064 19.4569 102.036C19.5134 102.535 19.1542 102.988 18.6546 103.047C18.62 103.048 18.5853 103.052 18.5507 103.052Z" fill="#F5F5F5"/>
</g>
<g id="Group_4">
<path id="Vector_2" d="M22.0572 132.268C21.6013 132.268 21.2093 131.928 21.1528 131.466L17.6465 102.246C17.5863 101.747 17.9437 101.29 18.4433 101.232C18.9538 101.16 19.3969 101.528 19.4571 102.028L22.9634 131.248C23.0235 131.747 22.6662 132.204 22.1666 132.263C22.1301 132.268 22.0936 132.268 22.0572 132.268Z" fill="#F5F5F5"/>
</g>
<g id="Group_5">
<path id="Vector_3" d="M26.6609 136.884C23.6195 136.884 21.1453 134.403 21.1453 131.354C21.1453 130.852 21.5537 130.44 22.0569 130.44C22.5602 130.44 22.9686 130.852 22.9686 131.354C22.9686 133.396 24.6242 135.056 26.6609 135.056C27.1641 135.056 27.5725 135.463 27.5725 135.97C27.5725 136.474 27.1659 136.884 26.6609 136.884Z" fill="#F5F5F5"/>
</g>
<g id="Group_6">
<path id="Vector_4" d="M9.9208 87.296C9.71111 87.296 9.49961 87.2247 9.32821 87.0748C3.40053 81.9843 0 74.5833 0 66.7657C0 52.0278 11.9611 40.0371 26.6627 40.0371C27.166 40.0371 27.5744 40.4465 27.5744 40.951C27.5744 41.4555 27.166 41.865 26.6627 41.865C12.9658 41.865 1.82334 53.0349 1.82334 66.7657C1.82334 74.0478 4.99048 80.9442 10.5152 85.6857C10.8981 86.0147 10.9419 86.5923 10.6155 86.9743C10.4313 87.1863 10.1761 87.296 9.9208 87.296Z" fill="#F5F5F5"/>
</g>
<g id="Group_7">
<path id="Vector_5" d="M34.7693 103.052C34.7347 103.052 34.7 103.048 34.6654 103.045C34.1658 102.988 33.8048 102.535 33.8613 102.034C34.9152 92.7045 41.2604 86.775 43.9389 84.6583C44.3346 84.3476 44.9089 84.4152 45.2189 84.8119C45.5307 85.2085 45.4632 85.7825 45.0676 86.0932C42.5678 88.0673 36.6492 93.5947 35.6737 102.24C35.6208 102.705 35.227 103.052 34.7693 103.052Z" fill="#F5F5F5"/>
</g>
<g id="Group_8">
<path id="Vector_6" d="M31.2646 132.268C31.2281 132.268 31.1917 132.268 31.1552 132.261C30.6556 132.204 30.2982 131.747 30.3584 131.246L33.8629 102.027C33.923 101.528 34.3825 101.155 34.8767 101.23C35.3762 101.286 35.7336 101.743 35.6735 102.244L32.169 131.464C32.1125 131.928 31.7186 132.268 31.2646 132.268Z" fill="#F5F5F5"/>
</g>
<g id="Group_9">
<path id="Vector_7" d="M26.6609 136.884C26.1577 136.884 25.7493 136.472 25.7493 135.97C25.7493 135.463 26.1577 135.056 26.6609 135.056C28.6958 135.056 30.3514 133.396 30.3514 131.354C30.3514 130.852 30.7598 130.44 31.2631 130.44C31.7663 130.44 32.1747 130.852 32.1747 131.354C32.1747 134.403 29.7023 136.884 26.6609 136.884Z" fill="#F5F5F5"/>
</g>
<g id="Group_10">
<path id="Vector_8" d="M43.3992 87.296C43.1421 87.296 42.8869 87.1845 42.7063 86.9743C42.3781 86.5923 42.4237 86.0147 42.8066 85.6857C48.3313 80.9442 51.4985 74.0478 51.4985 66.7657C51.4985 53.0349 40.3561 41.865 26.6609 41.865C26.1577 41.865 25.7493 41.4555 25.7493 40.951C25.7493 40.4465 26.1577 40.0371 26.6609 40.0371C41.3607 40.0371 53.3218 52.0278 53.3218 66.7657C53.3218 74.5833 49.9213 81.9879 43.9918 87.0748C43.8204 87.2247 43.6107 87.296 43.3992 87.296Z" fill="#F5F5F5"/>
</g>
<g id="Group_11">
<path id="Vector_9" d="M26.6609 78.0067C20.3557 78.0067 15.2285 72.8668 15.2285 66.5443C15.2285 60.2273 20.3557 55.0874 26.6609 55.0874C32.9642 55.0874 38.0914 60.2273 38.0914 66.5443C38.0914 72.8668 32.9642 78.0067 26.6609 78.0067ZM26.6609 56.9152C21.3622 56.9152 17.0519 61.2344 17.0519 66.5443C17.0519 71.8579 21.3622 76.1789 26.6609 76.1789C31.9577 76.1789 36.268 71.8579 36.268 66.5443C36.268 61.2344 31.9595 56.9152 26.6609 56.9152Z" fill="#F5F5F5"/>
</g>
<g id="Group_12">
<path id="Vector_10" d="M125.843 45.6394C125.386 45.6394 124.992 45.2957 124.939 44.8296C124.25 38.7374 120.072 34.835 118.307 33.4422C117.912 33.1296 117.844 32.5557 118.156 32.159C118.47 31.7642 119.042 31.6984 119.436 32.0073C121.378 33.5427 125.984 37.8473 126.751 44.6231C126.808 45.1239 126.449 45.5772 125.949 45.6339C125.913 45.6375 125.88 45.6394 125.843 45.6394Z" fill="#F5F5F5"/>
</g>
<g id="Group_13">
<path id="Vector_11" d="M128.352 66.5629C127.898 66.5629 127.505 66.2211 127.45 65.7586L124.941 44.8353C124.881 44.3345 125.236 43.8793 125.738 43.819C126.232 43.7569 126.691 44.1151 126.752 44.6178L129.26 65.5411C129.321 66.0419 128.965 66.4971 128.464 66.5574C128.425 66.561 128.391 66.5629 128.352 66.5629Z" fill="#F5F5F5"/>
</g>
<g id="Group_14">
<path id="Vector_12" d="M131.651 69.8656C129.332 69.8656 127.443 67.9738 127.443 65.6488C127.443 65.1443 127.851 64.7349 128.354 64.7349C128.858 64.7349 129.266 65.1443 129.266 65.6488C129.266 66.9667 130.336 68.0378 131.651 68.0378C132.154 68.0378 132.563 68.4472 132.563 68.9517C132.563 69.4562 132.154 69.8656 131.651 69.8656Z" fill="#F5F5F5"/>
</g>
<g id="Group_15">
<path id="Vector_13" d="M119.664 34.3581C119.454 34.3581 119.245 34.285 119.071 34.1388C114.77 30.4465 112.301 25.0745 112.301 19.399C112.301 8.70249 120.982 0.00195312 131.651 0.00195312C132.154 0.00195312 132.562 0.41139 132.562 0.915875C132.562 1.42036 132.154 1.8298 131.651 1.8298C121.987 1.8298 114.125 9.71146 114.125 19.399C114.125 24.5407 116.36 29.4065 120.257 32.7514C120.639 33.0804 120.683 33.6562 120.357 34.04C120.176 34.2484 119.919 34.3581 119.664 34.3581Z" fill="#F5F5F5"/>
</g>
<g id="Group_16">
<path id="Vector_14" d="M137.458 45.6393C137.422 45.6393 137.389 45.6375 137.354 45.6338C136.855 45.5772 136.492 45.1239 136.55 44.623C137.312 37.8582 141.914 33.5463 143.858 32.0073C144.252 31.6947 144.826 31.7587 145.14 32.1572C145.452 32.5538 145.384 33.1277 144.99 33.4403C143.225 34.8386 139.048 38.7465 138.362 44.8278C138.31 45.2939 137.916 45.6393 137.458 45.6393Z" fill="#F5F5F5"/>
</g>
<g id="Group_17">
<path id="Vector_15" d="M134.947 66.5628C134.909 66.5628 134.874 66.5609 134.836 66.5554C134.337 66.497 133.979 66.0418 134.039 65.5392L136.55 44.6158C136.61 44.1132 137.072 43.7641 137.564 43.8171C138.063 43.8774 138.421 44.3325 138.361 44.8334L135.85 65.7567C135.795 66.2228 135.401 66.5628 134.947 66.5628Z" fill="#F5F5F5"/>
</g>
<g id="Group_18">
<path id="Vector_16" d="M131.651 69.8656C131.147 69.8656 130.739 69.4562 130.739 68.9517C130.739 68.4472 131.147 68.0378 131.651 68.0378C132.965 68.0378 134.036 66.9667 134.036 65.6488C134.036 65.1443 134.444 64.7349 134.947 64.7349C135.451 64.7349 135.859 65.1443 135.859 65.6488C135.857 67.9738 133.97 69.8656 131.651 69.8656Z" fill="#F5F5F5"/>
</g>
<g id="Group_19">
<path id="Vector_17" d="M143.636 34.358C143.378 34.358 143.123 34.2483 142.943 34.0381C142.614 33.6542 142.66 33.0785 143.043 32.7495C146.941 29.4063 149.177 24.5388 149.177 19.3971C149.177 9.7095 141.314 1.82784 131.651 1.82784C131.147 1.82784 130.739 1.41841 130.739 0.913922C130.739 0.409437 131.147 0 131.651 0C142.321 0 151 8.70053 151 19.3971C151 25.0725 148.531 30.4464 144.228 34.1368C144.057 34.2867 143.845 34.358 143.636 34.358Z" fill="#F5F5F5"/>
</g>
<g id="Group_20">
<path id="Vector_18" d="M131.651 27.7065C126.994 27.7065 123.205 23.9082 123.205 19.2417C123.205 14.5752 126.994 10.7788 131.651 10.7788C136.308 10.7788 140.095 14.5752 140.095 19.2417C140.095 23.9082 136.308 27.7065 131.651 27.7065ZM131.651 12.6048C127.999 12.6048 125.028 15.5806 125.028 19.2399C125.028 22.8992 127.999 25.8768 131.651 25.8768C135.301 25.8768 138.271 22.8992 138.271 19.2399C138.271 15.5824 135.301 12.6048 131.651 12.6048Z" fill="#F5F5F5"/>
</g>
<g id="Group_21">
<path id="Vector_19" d="M39.6376 127.856C39.3313 127.856 39.0304 127.702 38.859 127.421C38.5946 126.989 38.7314 126.428 39.1599 126.163L125.369 73.238C125.792 72.9766 126.359 73.1101 126.624 73.5414C126.886 73.9692 126.751 74.534 126.321 74.799L40.1135 127.724C39.964 127.812 39.7999 127.856 39.6376 127.856Z" fill="#F5F5F5"/>
</g>
<g id="Group_22">
<path id="Vector_20" d="M91.829 112.739C91.8254 112.739 91.8217 112.739 91.8163 112.739L64.9731 112.387C64.4698 112.379 64.0669 111.966 64.0723 111.462C64.0778 110.957 64.4461 110.59 64.9949 110.559L91.84 110.912C92.3414 110.919 92.7462 111.332 92.7389 111.84C92.7334 112.341 92.3268 112.739 91.829 112.739Z" fill="#F5F5F5"/>
</g>
<g id="Group_23">
<path id="Vector_21" d="M91.8289 95.4682H77.6214C77.1181 95.4682 76.7097 95.057 76.7097 94.5543C76.7097 94.048 77.1181 93.6404 77.6214 93.6404H91.8289C92.3321 93.6404 92.7405 94.048 92.7405 94.5543C92.7405 95.0588 92.3321 95.4682 91.8289 95.4682Z" fill="#F5F5F5"/>
</g>
<g id="Group_24">
<path id="Vector_22" d="M112.535 89.1386H103.868C103.365 89.1386 102.957 88.7274 102.957 88.2247C102.957 87.7184 103.365 87.3108 103.868 87.3108H112.535C113.038 87.3108 113.446 87.7184 113.446 88.2247C113.446 88.7292 113.04 89.1386 112.535 89.1386Z" fill="#F5F5F5"/>
</g>
</g>
</g>
</svg>
