<svg width="118" height="129" viewBox="0 0 118 129" fill="none" xmlns="http://www.w3.org/2000/svg">
<g id="Group">
<path id="Vector" d="M58.813 48.2709C62.0033 48.2709 64.5001 50.7677 64.5001 53.958C64.5001 55.0677 65.471 56.0387 66.5807 56.0387C67.6904 56.0387 68.6614 55.0677 68.6614 53.958C68.6614 49.2419 65.3323 45.358 60.8936 44.3871V39.8096C60.8936 38.7 59.9227 37.729 58.813 37.729C57.7033 37.729 56.7323 38.7 56.7323 39.8096V44.3871C52.2936 45.358 48.9646 49.2419 48.9646 53.958C48.9646 59.3677 53.4033 63.8064 58.813 63.8064C62.0033 63.8064 64.5001 66.3032 64.5001 69.4935C64.5001 72.6838 62.0033 75.1806 58.813 75.1806C55.6227 75.1806 53.1259 72.6838 53.1259 69.4935C53.1259 68.3838 52.1549 67.4129 51.0452 67.4129C49.9356 67.4129 48.9646 68.3838 48.9646 69.4935C48.9646 74.2096 52.2936 78.0935 56.7323 79.0645V83.6419C56.7323 84.7516 57.7033 85.7226 58.813 85.7226C59.9227 85.7226 60.8936 84.7516 60.8936 83.6419V79.0645C65.3323 78.0935 68.6614 74.2096 68.6614 69.4935C68.6614 64.0838 64.2227 59.6451 58.813 59.6451C55.6227 59.6451 53.1259 57.1484 53.1259 53.958C53.1259 50.7677 55.6227 48.2709 58.813 48.2709Z" fill="#4A5B49"/>
<path id="Vector_2" d="M91.9646 58.8127C91.9646 40.5031 77.1227 25.6611 58.813 25.6611C40.5033 25.6611 25.6614 40.5031 25.6614 58.8127C25.6614 71.7127 33.1517 83.3644 44.8033 88.9127V96.5418H41.613C40.5033 96.5418 39.5323 97.5127 39.5323 98.6224C39.5323 99.7321 40.5033 100.703 41.613 100.703H44.8033V104.171H41.613C40.5033 104.171 39.5323 105.142 39.5323 106.251C39.5323 107.361 40.5033 108.332 41.613 108.332H44.8033V111.8H41.613C40.5033 111.8 39.5323 112.771 39.5323 113.88C39.5323 114.99 40.5033 115.961 41.613 115.961H44.8033C45.3582 123.174 51.4614 129 58.813 129C66.1646 129 72.2678 123.313 72.8227 115.961H76.013C77.1227 115.961 78.0936 114.99 78.0936 113.88C78.0936 112.771 77.1227 111.8 76.013 111.8H72.8227V108.332H76.013C77.1227 108.332 78.0936 107.361 78.0936 106.251C78.0936 105.142 77.1227 104.171 76.013 104.171H72.8227V100.703H76.013C77.1227 100.703 78.0936 99.7321 78.0936 98.6224C78.0936 97.5127 77.1227 96.5418 76.013 96.5418H72.8227V88.9127C84.613 83.5031 91.9646 71.8515 91.9646 58.8127ZM58.813 124.839C53.6807 124.839 49.5194 120.955 48.9646 115.961H68.8001C68.1065 120.955 63.9452 124.839 58.813 124.839ZM68.8001 111.8H48.8259V108.332H68.8001V111.8ZM68.8001 104.171H48.8259V100.703H68.8001V104.171ZM48.8259 96.5418V87.6644C48.8259 86.8321 48.2711 86.1386 47.5775 85.7224C36.7582 81.145 29.8227 70.6031 29.8227 58.8127C29.8227 42.8611 42.8614 29.8224 58.813 29.8224C74.7646 29.8224 87.8033 42.8611 87.8033 58.8127C87.8033 70.6031 80.8678 81.0063 70.0485 85.5837C69.2162 85.8611 68.8001 86.6934 68.8001 87.5256V96.4031H48.8259V96.5418Z" fill="#4A5B49"/>
<path id="Vector_3" d="M58.8129 0C26.3548 0 0 26.3548 0 58.8129C0 80.5903 11.929 100.565 31.2097 110.829C32.1806 111.384 33.429 110.968 33.9839 109.997C34.5387 109.026 34.1226 107.777 33.1516 107.223C15.2581 97.6516 4.16129 79.2032 4.16129 58.9516C4.16129 28.7129 28.7129 4.16129 58.8129 4.16129C88.9129 4.16129 113.465 28.7129 113.465 58.8129C113.465 79.3419 102.09 97.929 83.9194 107.361C82.9484 107.916 82.5323 109.165 83.0871 110.135C83.5032 110.829 84.1968 111.245 84.8903 111.245C85.1677 111.245 85.5839 111.106 85.8613 110.968C105.558 100.842 117.765 80.729 117.765 58.6742C117.626 26.4935 91.271 0 58.8129 0Z" fill="#4A5B49"/>
</g>
</svg>
