<svg width="199" height="51" viewBox="0 0 199 51" fill="none" xmlns="http://www.w3.org/2000/svg">
<path d="M23.344 2.952C23.344 4.04 22.256 7.56 21.744 9.544C21.552 10.248 21.168 12.872 21.168 16.264C21.168 16.776 21.296 18.44 21.296 24.84C21.296 25.352 21.488 25.608 21.68 25.608C21.808 25.608 21.872 25.544 22.448 24.904C28.336 18.44 35.568 13.192 40.56 6.792C41.008 6.216 41.136 6.152 41.456 6.152C43.12 6.152 43.568 6.664 44.272 6.664C44.464 6.664 45.808 7.816 45.808 9.288C45.808 9.48 45.744 9.544 45.488 9.928C38.64 20.232 35.056 31.24 33.392 49.224C33.264 50.632 33.2 50.696 32.944 50.696C32.496 50.696 32.048 50.184 31.472 50.184C31.088 50.184 31.152 50.44 30.768 50.44C29.936 50.44 28.72 49.672 28.208 49.224C27.76 48.84 27.696 48.776 27.696 48.456C27.696 48.008 29.872 34.888 30.256 32.968C30.64 30.92 32.304 25.544 33.52 21.896C33.52 21.64 33.456 21.64 33.264 21.64C33.136 21.64 33.072 21.704 32.944 21.832C29.808 24.968 24.816 30.472 23.92 31.496C23.344 32.136 23.28 32.136 23.088 32.136C22.896 32.136 22.192 31.816 20.784 31.56C19.696 31.368 18.544 31.176 17.84 30.088C17.328 29.32 16.624 27.016 16.496 24.264V18.056C16.496 17.864 16.432 17.736 16.304 17.736C16.112 17.736 16.048 17.864 15.536 18.824C13.552 22.536 12.272 25.864 10.672 30.28C7.984 37.704 6.704 42.696 6.704 45.384C6.704 45.832 5.872 46.472 5.488 46.472C4.528 46.472 4.528 47.112 4.016 47.112C3.504 47.112 2.032 46.088 1.648 46.088C1.2 46.088 0.368 44.808 0.368 43.72C0.368 41.352 2.16 39.304 2.544 37.832C5.808 25.224 13.232 13 17.584 2.12C17.968 1.16 18.096 0.903999 18.288 0.903999C18.928 0.903999 18.928 1.096 20.016 1.224C21.04 1.352 22.256 1.544 22.96 2.248C23.216 2.504 23.344 2.76 23.344 2.952ZM80.521 2.44C81.097 2.12 82.953 1.48 84.937 1.48C87.241 1.48 89.609 2.248 91.145 3.592C91.977 4.296 92.489 5.064 92.489 5.896C92.489 6.664 92.169 9.288 86.921 15.368C85.193 17.352 83.401 19.848 83.401 19.976C83.401 20.104 83.529 20.168 83.657 20.232C84.873 20.808 86.537 20.488 87.753 20.936C89.929 21.768 91.657 23.368 92.617 25.224C93.001 25.928 93.065 26.504 93.065 27.4C93.065 33.032 90.057 36.808 86.665 42.248C84.553 45.64 80.585 47.112 76.361 47.112C74.313 47.112 71.049 46.728 69.641 45.96C68.937 45.576 67.593 45.256 66.441 44.104C66.185 44.232 65.801 44.232 65.481 44.232C64.073 44.232 62.793 42.888 61.705 41.928C61.321 41.608 61.321 41.416 61.321 41.16C61.321 40.2 58.697 38.088 58.633 37.448C58.505 36.168 57.545 35.912 57.545 34.568C57.545 33.736 58.313 33.48 61.129 33.48C61.513 33.48 62.089 33.736 62.345 33.736C62.601 33.736 62.857 33.736 63.049 32.904C64.905 24.84 66.313 19.656 69.001 12.68C69.001 12.552 68.937 12.424 68.809 12.232C68.297 11.464 68.233 10.952 68.233 10.12C68.233 9.48 68.297 9.416 68.617 9.288C70.473 8.52 71.177 7.048 72.137 4.296C73.033 1.736 73.737 1.288 74.505 1.288C75.977 1.288 77.385 2.952 78.985 2.952C79.433 2.952 79.945 2.76 80.521 2.44ZM83.785 23.88C80.841 23.88 77.001 26.44 75.529 27.4C73.929 28.488 71.881 29.512 70.281 29.512C69.769 29.512 69.705 29.64 69.577 30.152C69.129 32.072 67.593 37.384 67.593 39.112C67.593 39.368 67.657 39.688 68.041 40.072C70.025 42.056 72.841 44.104 76.489 44.104C80.009 44.104 82.313 39.816 85.385 33.48C86.985 30.152 86.985 28.04 86.985 26.696C86.985 25.672 86.857 25.288 86.345 24.648C85.833 24.008 84.937 23.88 83.785 23.88ZM86.217 5.832C86.217 5.576 86.153 5.448 85.897 5.448C82.249 5.448 79.433 6.856 76.745 8.776C76.297 9.096 76.169 9.224 75.977 9.672C75.593 10.632 75.081 11.528 74.761 12.488C73.865 15.176 70.857 22.536 70.857 24.264C70.857 24.52 70.921 24.52 71.113 24.52C71.497 24.52 73.417 23.368 74.505 21.96C74.953 21.384 75.593 20.488 75.977 20.04C77.897 17.8 80.841 14.92 82.889 12.104C85.321 8.712 86.217 6.216 86.217 5.832ZM105.175 16.968C105.751 17.864 106.135 19.016 106.135 20.552C106.135 21.256 106.007 21.96 105.751 22.728C105.559 23.496 105.495 23.624 105.495 23.752C105.495 23.944 105.495 24.008 105.687 24.008C105.751 24.008 106.007 23.944 106.519 23.496C110.039 20.808 113.111 19.016 115.415 18.248C115.607 18.184 115.991 18.12 116.183 18.12C117.975 18.12 119.767 18.632 120.855 19.912C121.111 20.168 121.303 20.616 121.303 21C121.303 22.984 119.575 23.816 119.063 23.816C118.103 23.816 117.079 23.176 116.183 23.176C115.991 23.176 115.735 23.176 115.159 23.432C108.183 26.696 101.271 32.392 99.031 41.8C98.583 43.72 97.879 44.552 97.431 44.872C97.111 45.256 96.535 45.448 96.279 45.448C95.255 45.384 94.807 44.616 94.359 44.104C93.719 43.464 93.207 42.44 93.143 41.672C93.143 39.496 95.831 37.384 96.599 34.952C98.199 30.088 99.991 25.288 101.015 20.168C101.079 19.592 101.143 19.272 101.143 19.144C101.143 18.76 100.631 18.248 100.567 17.672C100.567 17.16 101.591 16.264 103.063 16.264C103.959 16.264 104.983 16.648 105.175 16.968ZM133.579 15.56C134.155 17.16 134.987 19.08 136.843 19.08C139.403 19.08 140.875 18.888 142.347 18.888C144.395 18.888 146.315 19.528 146.315 20.552C146.315 21.384 144.715 21.576 144.523 21.896C144.395 22.152 144.267 22.216 143.819 22.28C142.539 22.472 140.683 23.112 139.019 23.368C137.739 23.56 136.971 23.56 136.523 23.56C136.011 23.56 135.883 23.624 135.755 24.072C134.091 30.92 131.787 36.872 127.691 41.224C125.899 43.144 124.171 45 121.931 45C121.355 45 120.779 44.872 120.395 44.68C117.963 43.528 116.171 42.12 115.595 40.648C114.891 38.856 114.635 36.936 114.635 35.336C114.635 30.088 117.259 25.48 120.203 21.064C121.099 19.72 121.099 20.04 121.739 19.144C123.787 16.264 126.475 13.256 129.291 13.256C130.315 13.256 131.595 13.512 132.683 14.472C133.195 14.92 133.387 15.048 133.579 15.56ZM130.315 19.784C129.995 19.464 129.867 19.08 129.803 18.824C129.611 18.184 129.419 17.736 129.163 17.736C128.907 17.736 128.523 17.992 128.203 18.376C127.947 18.696 127.307 19.016 126.987 19.464C125.003 21.96 118.987 29.896 118.987 37.384C118.987 37.576 118.987 37.832 119.179 38.28C119.371 38.792 120.139 40.008 120.715 40.392C120.907 40.52 121.099 40.52 121.291 40.52C121.931 40.52 122.251 40.136 122.507 40.008C122.955 39.816 123.083 39.624 123.595 38.856C127.307 33.288 130.763 28.296 130.763 21.832C130.763 21.576 130.763 20.808 130.699 20.488C130.635 20.04 130.507 19.976 130.315 19.784ZM151.573 15.432C151.573 15.816 151.317 16.328 151.061 16.712C150.677 17.288 150.421 18.184 150.229 18.632C147.669 24.712 145.877 30.984 143.765 37.32C143.573 37.896 143.509 38.152 143.509 38.344C143.509 38.472 143.573 38.536 143.701 38.536C143.893 38.536 144.277 38.408 146.133 36.232C150.037 31.624 153.557 26.568 155.733 21.32C156.053 20.552 156.693 20.424 157.397 20.424C158.037 20.424 158.421 20.552 158.869 20.552C159.829 20.552 160.853 21.576 160.853 22.472C160.853 23.432 160.405 24.328 158.741 27.144C157.845 28.68 157.717 29.64 157.397 30.344C155.989 33.48 155.029 37.128 155.029 40.712C155.029 41.544 155.733 41.928 155.989 41.928C156.373 41.928 157.525 41.608 158.741 40.072C162.517 35.272 163.157 27.848 163.157 27.208C163.157 26.312 163.477 25.608 163.477 24.84C163.477 23.048 162.197 21.064 162.197 19.592C162.197 19.208 162.325 18.504 162.901 18.056C163.221 17.8 165.013 17.672 165.589 17.672C166.613 17.672 166.165 18.056 168.021 19.272C169.173 20.04 170.197 20.232 172.885 20.232C175.637 20.232 178.133 19.464 181.461 19.464C182.037 19.464 182.933 19.464 182.933 21.256C182.933 22.088 181.845 22.792 179.861 23.24C175.829 24.2 174.613 24.904 172.693 24.904C170.005 24.904 169.109 24.392 168.597 24.392C168.149 24.392 168.021 24.712 168.021 25.224C168.021 25.8 168.021 27.144 167.957 27.848C167.637 34.248 164.949 40.584 160.469 45.064C159.829 45.704 159.125 46.152 157.653 46.152C155.989 46.152 153.877 45.32 152.213 44.36C151.445 43.912 150.421 42.888 150.421 41.416C150.421 40.264 150.613 39.688 150.613 38.92C150.613 38.6 150.549 38.408 150.421 38.408C150.229 38.408 149.973 38.664 149.397 39.24C147.477 41.16 146.197 43.912 143.445 43.912C142.421 43.912 142.293 43.464 140.757 42.888C139.733 42.504 138.901 41.864 138.773 41.608C138.645 41.352 138.325 40.456 138.325 39.752C138.325 39.048 138.453 38.472 138.581 38.024C140.501 30.28 144.405 22.792 145.493 15.304C145.557 14.856 146.261 14.216 146.709 14.088C147.285 13.896 147.797 13.896 148.245 13.896C148.885 13.896 149.397 13.96 150.037 13.96C150.485 13.96 151.573 14.6 151.573 15.432ZM175.512 27.976C177.432 23.56 178.904 20.488 181.72 16.2C182.232 15.432 182.168 15.304 182.744 14.792C183.256 14.344 184.024 14.152 184.984 14.152C186.456 14.152 187.288 14.536 187.544 15.112C187.672 15.432 187.864 15.944 187.864 16.264C187.864 16.968 187.544 18.12 186.456 19.272C185.752 20.04 183.96 22.088 182.36 25.032C181.464 26.696 179.928 29.768 177.816 35.016C177.368 36.168 176.536 39.304 176.536 39.496C176.536 39.752 176.536 40.136 176.728 40.136C177.112 40.136 177.368 39.944 177.816 39.304C186.456 27.016 191.192 24.456 192.6 21.448C193.752 19.016 194.008 18.824 194.84 18.824C195.8 18.824 196.12 19.4 197.144 19.464C197.848 19.528 198.424 20.424 198.424 21.192C198.424 21.448 198.104 22.344 197.784 22.856C195.48 26.632 194.264 29.064 193.304 32.328C192.92 33.608 192.536 36.808 192.536 38.088C192.536 39.24 192.92 40.2 193.048 40.84C193.24 41.992 194.84 42.824 195.288 43.144C195.8 43.528 196.248 43.976 196.248 44.616C196.248 45.064 195.8 46.152 194.584 46.152C194.072 46.152 192.024 45.96 191.256 45.256C190.36 44.424 189.592 44.168 188.76 43.016C187.992 41.992 187.672 40.648 187.672 39.048C187.672 35.272 188.248 34.184 188.248 33.992C188.248 33.864 188.184 33.736 188.056 33.736C187.928 33.736 187.864 33.736 187.672 33.992C185.048 37.448 183.32 39.624 181.784 41.8C180.44 43.72 179.928 43.656 179.032 44.616C178.52 45.192 177.24 45.32 176.664 45.32C175.896 45.32 172.888 43.4 172.056 42.376C171.799 42.056 171.608 41.224 171.608 40.52C171.608 38.536 172.184 38.088 172.376 36.68C172.632 34.824 174.424 30.472 175.512 27.976Z" fill="#F5F5F5"/>
</svg>
